<?xml version="1.0" encoding="utf-8"?>
<!-- Generator: Adobe Illustrator 15.0.0, SVG Export Plug-In . SVG Version: 6.00 Build 0)  -->
<!DOCTYPE svg PUBLIC "-//W3C//DTD SVG 1.1//EN" "http://www.w3.org/Graphics/SVG/1.1/DTD/svg11.dtd">
<svg version="1.1" id="Layer_1" xmlns="http://www.w3.org/2000/svg" xmlns:xlink="http://www.w3.org/1999/xlink" x="0px" y="0px"
	 width="37px" height="37px" viewBox="0 0 37 37" enable-background="new 0 0 37 37" xml:space="preserve">
<g>
	<path fill="#FFFFFF" d="M18.603,27.953c-4.258,0-7.723-3.465-7.723-7.724s3.464-7.723,7.723-7.723c4.258,0,7.723,3.464,7.723,7.723
		S22.86,27.953,18.603,27.953z"/>
	<path d="M18.603,13.506c3.707,0,6.723,3.016,6.723,6.723s-3.016,6.724-6.723,6.724s-6.723-3.017-6.723-6.724
		S14.896,13.506,18.603,13.506 M18.603,11.506c-4.817,0-8.723,3.906-8.723,8.723s3.906,8.724,8.723,8.724
		c4.819,0,8.723-3.906,8.723-8.724S23.422,11.506,18.603,11.506L18.603,11.506z"/>
</g>
<path fill="none" stroke="#000000" stroke-width="2" stroke-miterlimit="10" d="M35.705,30.891v-2.415c0,0,0-18.215,0-22.769
	c0-4.553-4.347-4.346-4.347-4.346H11.384h14.438H5.847c0,0-4.347-0.207-4.347,4.346c0,4.554,0,22.769,0,22.769V8.673
	c0,0,0,18.215,0,22.77c0,3.83,4.347,3.519,4.347,3.519h19.975H11.384h19.975c0,0,4.347,0.209,4.347-3.519c0-4.555,0-22.77,0-22.77"
	/>
<g>
	<path d="M2.801,11.865c-0.276,0-0.5-0.224-0.5-0.5V5.761c0-0.276,0.224-0.5,0.5-0.5h7.449c0.276,0,0.5,0.224,0.5,0.5v5.604
		c0,0.276-0.224,0.5-0.5,0.5H2.801z"/>
	<path d="M10.25,5.761v5.604H2.801V5.761H10.25 M10.25,4.761H2.801c-0.55,0-1,0.45-1,1v5.604c0,0.55,0.45,1,1,1h7.449
		c0.55,0,1-0.45,1-1V5.761C11.25,5.211,10.8,4.761,10.25,4.761L10.25,4.761z"/>
</g>
<g>
	<path d="M16.294,30.312c-0.276,0-0.5-0.225-0.5-0.5v-1.438c0-0.275,0.224-0.5,0.5-0.5h4.412c0.275,0,0.5,0.225,0.5,0.5v1.438
		c0,0.275-0.225,0.5-0.5,0.5H16.294z"/>
	<path d="M20.706,28.375v1.438h-4.412v-1.438H20.706 M20.706,27.375h-4.412c-0.55,0-1,0.45-1,1v1.438c0,0.55,0.45,1,1,1h4.412
		c0.55,0,1-0.45,1-1v-1.438C21.706,27.825,21.256,27.375,20.706,27.375L20.706,27.375z"/>
</g>
<circle cx="28.571" cy="8.563" r="3.165"/>
<g>
	<path fill="#FFFFFF" d="M8.88,6.075c0.55,0,1,0.45,1,1v0.801c0,0.55-0.45,1-1,1H8.078c-0.55,0-1-0.45-1-1V7.075c0-0.55,0.45-1,1-1
		H8.88z"/>
</g>
</svg>
