<?xml version="1.0" encoding="utf-8"?>
<!-- Generator: Adobe Illustrator 15.0.0, SVG Export Plug-In . SVG Version: 6.00 Build 0)  -->
<!DOCTYPE svg PUBLIC "-//W3C//DTD SVG 1.1//EN" "http://www.w3.org/Graphics/SVG/1.1/DTD/svg11.dtd">
<svg version="1.1" id="Layer_1" xmlns="http://www.w3.org/2000/svg" xmlns:xlink="http://www.w3.org/1999/xlink" x="0px" y="0px"
	 width="30px" height="30px" viewBox="0 0 30 30" enable-background="new 0 0 30 30" xml:space="preserve">
<path d="M15,28.624l-0.346-0.335c-0.085-0.082-8.542-8.246-11.723-11.426c-1.648-1.648-2.558-3.838-2.562-6.165
	c-0.003-2.328,0.9-4.514,2.544-6.158c1.5-1.502,3.524-2.329,5.699-2.329c2.335,0,4.658,0.944,6.417,2.601
	c1.752-1.624,4.051-2.548,6.362-2.548c2.174,0,4.198,0.827,5.698,2.329c3.39,3.392,3.382,8.919-0.018,12.323
	c-3.182,3.181-11.639,11.293-11.724,11.375L15,28.624z M8.612,3.117c-1.907,0-3.68,0.723-4.992,2.036
	c-1.455,1.454-2.254,3.39-2.251,5.449c0.003,2.061,0.809,4,2.269,5.459c2.807,2.805,9.735,9.506,11.364,11.079
	c1.631-1.565,8.557-8.222,11.362-11.026c3.01-3.013,3.018-7.907,0.018-10.909C25.07,3.893,23.298,3.17,21.391,3.17
	c-2.167,0-4.324,0.915-5.921,2.511l-0.362,0.373l-0.526-0.369C12.935,4.032,10.778,3.117,8.612,3.117z"/>
</svg>
