<?xml version="1.0" encoding="utf-8"?>
<!-- Generator: Adobe Illustrator 15.0.0, SVG Export Plug-In . SVG Version: 6.00 Build 0)  -->
<!DOCTYPE svg PUBLIC "-//W3C//DTD SVG 1.1//EN" "http://www.w3.org/Graphics/SVG/1.1/DTD/svg11.dtd">
<svg version="1.1" id="Layer_1" xmlns="http://www.w3.org/2000/svg" xmlns:xlink="http://www.w3.org/1999/xlink" x="0px" y="0px"
	 width="37px" height="37px" viewBox="0 0 37 37" enable-background="new 0 0 37 37" xml:space="preserve">
<g>
	<path fill="#FFFFFF" d="M18.5,28.266c-4.258,0-7.723-3.465-7.723-7.724s3.464-7.723,7.723-7.723c4.258,0,7.723,3.464,7.723,7.723
		S22.758,28.266,18.5,28.266z"/>
	<path d="M18.5,13.819c3.707,0,6.723,3.016,6.723,6.723s-3.016,6.724-6.723,6.724s-6.723-3.017-6.723-6.724
		S14.793,13.819,18.5,13.819 M18.5,11.819c-4.817,0-8.723,3.906-8.723,8.723s3.906,8.724,8.723,8.724
		c4.819,0,8.723-3.906,8.723-8.724S23.319,11.819,18.5,11.819L18.5,11.819z"/>
</g>
<path fill="none" stroke="#000000" stroke-width="2" stroke-miterlimit="10" d="M35.603,31.203v-2.415c0,0,0-18.215,0-22.769
	c0-4.553-4.347-4.346-4.347-4.346H11.281h14.438H5.744c0,0-4.347-0.207-4.347,4.346c0,4.554,0,22.769,0,22.769V8.986
	c0,0,0,18.215,0,22.77c0,3.83,4.347,3.519,4.347,3.519h19.975H11.281h19.975c0,0,4.347,0.209,4.347-3.519c0-4.555,0-22.77,0-22.77"
	/>
<line fill="none" stroke="#000000" stroke-linecap="round" stroke-linejoin="round" stroke-miterlimit="10" x1="6.725" y1="2.676" x2="6.725" y2="9.375"/>
<line fill="none" stroke="#000000" stroke-linecap="round" stroke-linejoin="round" stroke-miterlimit="10" x1="9.777" y1="2.676" x2="9.777" y2="9.375"/>
<line fill="none" stroke="#000000" stroke-linecap="round" stroke-linejoin="round" stroke-miterlimit="10" x1="9.777" y1="2.676" x2="9.777" y2="9.375"/>
<line fill="none" stroke="#000000" stroke-linecap="round" stroke-linejoin="round" stroke-miterlimit="10" x1="12.83" y1="2.676" x2="12.83" y2="9.375"/>
<g>
	<path d="M26.771,11.036c-0.275,0-0.5-0.224-0.5-0.5v-4.33c0-0.276,0.225-0.5,0.5-0.5h4.331c0.275,0,0.5,0.224,0.5,0.5v4.33
		c0,0.276-0.225,0.5-0.5,0.5H26.771z"/>
	<path d="M31.102,6.206v4.33h-4.331v-4.33H31.102 M31.102,5.206h-4.331c-0.55,0-1,0.45-1,1v4.33c0,0.55,0.45,1,1,1h4.331
		c0.55,0,1-0.45,1-1v-4.33C32.102,5.656,31.651,5.206,31.102,5.206L31.102,5.206z"/>
</g>
<line fill="none" stroke="#000000" stroke-width="1.5" stroke-linecap="round" stroke-linejoin="round" stroke-miterlimit="10" x1="26.903" y1="29.766" x2="23.703" y2="26.566"/>
</svg>
