<?xml version="1.0" encoding="utf-8"?>
<!-- Generator: Adobe Illustrator 15.0.0, SVG Export Plug-In . SVG Version: 6.00 Build 0)  -->
<!DOCTYPE svg PUBLIC "-//W3C//DTD SVG 1.1//EN" "http://www.w3.org/Graphics/SVG/1.1/DTD/svg11.dtd">
<svg version="1.1" id="Layer_1" xmlns="http://www.w3.org/2000/svg" xmlns:xlink="http://www.w3.org/1999/xlink" x="0px" y="0px"
	 width="37px" height="37px" viewBox="0 0 37 37" enable-background="new 0 0 37 37" xml:space="preserve">
<g>
	<path fill="#FFFFFF" d="M18.456,27.018c-3.5,0-6.348-2.848-6.348-6.349c0-3.5,2.848-6.348,6.348-6.348s6.348,2.848,6.348,6.348
		C24.804,24.17,21.956,27.018,18.456,27.018z"/>
	<path d="M18.456,15.321c2.948,0,5.348,2.399,5.348,5.348s-2.399,5.349-5.348,5.349c-2.949,0-5.348-2.399-5.348-5.349
		S15.507,15.321,18.456,15.321 M18.456,13.321c-4.058,0-7.348,3.29-7.348,7.348c0,4.058,3.29,7.349,7.348,7.349
		c4.06,0,7.348-3.291,7.348-7.349C25.804,16.611,22.516,13.321,18.456,13.321L18.456,13.321z"/>
</g>
<path fill="none" stroke="#000000" stroke-width="2" stroke-miterlimit="10" d="M35.603,31.203v-2.415c0,0,0-18.215,0-22.769
	c0-4.553-4.347-4.346-4.347-4.346H11.281h14.438H5.744c0,0-4.347-0.207-4.347,4.346c0,4.554,0,22.769,0,22.769V8.986
	c0,0,0,18.215,0,22.77c0,3.83,4.347,3.519,4.347,3.519h19.975H11.281h19.975c0,0,4.347,0.209,4.347-3.519c0-4.555,0-22.77,0-22.77"
	/>
<line fill="none" stroke="#000000" stroke-width="1.5" stroke-linecap="round" stroke-linejoin="round" stroke-miterlimit="10" x1="5.227" y1="6.931" x2="5.227" y2="13.632"/>
<line fill="none" stroke="#000000" stroke-width="1.5" stroke-linecap="round" stroke-linejoin="round" stroke-miterlimit="10" x1="7.967" y1="6.931" x2="7.967" y2="13.632"/>
<line fill="none" stroke="#000000" stroke-width="1.5" stroke-linecap="round" stroke-linejoin="round" stroke-miterlimit="10" x1="10.696" y1="6.931" x2="10.696" y2="13.632"/>
<g>
	<rect x="26.304" y="7.549" width="5.331" height="5.33"/>
	<path d="M31.135,8.049v4.33h-4.331v-4.33H31.135 M32.135,7.049h-6.331v6.33h6.331V7.049L32.135,7.049z"/>
</g>
<line fill="none" stroke="#000000" stroke-width="2" stroke-miterlimit="10" x1="2.084" y1="33.584" x2="34.855" y2="33.584"/>
</svg>
