<?xml version="1.0" encoding="utf-8"?>
<!-- Generator: Adobe Illustrator 15.0.0, SVG Export Plug-In . SVG Version: 6.00 Build 0)  -->
<!DOCTYPE svg PUBLIC "-//W3C//DTD SVG 1.1//EN" "http://www.w3.org/Graphics/SVG/1.1/DTD/svg11.dtd">
<svg version="1.1" id="Layer_1" xmlns="http://www.w3.org/2000/svg" xmlns:xlink="http://www.w3.org/1999/xlink" x="0px" y="0px"
	 width="37px" height="37px" viewBox="0 0 37 37" enable-background="new 0 0 37 37" xml:space="preserve">
<g>
	<path fill="#FFFFFF" d="M17.603,27.953c-4.258,0-7.723-3.465-7.723-7.724s3.464-7.723,7.723-7.723c4.258,0,7.723,3.464,7.723,7.723
		S21.86,27.953,17.603,27.953z"/>
	<path d="M17.603,13.506c3.707,0,6.723,3.016,6.723,6.723s-3.016,6.724-6.723,6.724s-6.723-3.017-6.723-6.724
		S13.896,13.506,17.603,13.506 M17.603,11.506c-4.817,0-8.723,3.906-8.723,8.723s3.906,8.724,8.723,8.724
		c4.819,0,8.723-3.906,8.723-8.724S22.422,11.506,17.603,11.506L17.603,11.506z"/>
</g>
<path fill="none" stroke="#000000" stroke-width="2" stroke-miterlimit="10" d="M34.705,30.891v-2.415c0,0,0-18.215,0-22.769
	c0-4.553-4.347-4.346-4.347-4.346H10.384h14.438H4.847c0,0-4.347-0.207-4.347,4.346c0,4.554,0,22.769,0,22.769V8.673
	c0,0,0,18.215,0,22.77c0,3.83,4.347,3.519,4.347,3.519h19.975H10.384h19.975c0,0,4.347,0.209,4.347-3.519c0-4.555,0-22.77,0-22.77"
	/>
<g>
	<path d="M7.061,8.938c-0.276,0-0.5-0.224-0.5-0.5V2.359c0-0.276,0.224-0.5,0.5-0.5h5.604c0.276,0,0.5,0.224,0.5,0.5v6.079
		c0,0.276-0.224,0.5-0.5,0.5H7.061z"/>
	<path d="M12.665,2.359v6.079H7.061V2.359H12.665 M12.665,1.359H7.061c-0.55,0-1,0.45-1,1v6.079c0,0.55,0.45,1,1,1h5.604
		c0.55,0,1-0.45,1-1V2.359C13.665,1.809,13.215,1.359,12.665,1.359L12.665,1.359z"/>
</g>
<circle cx="27.571" cy="8.563" r="3.165"/>
<g>
	<path fill="#FFFFFF" d="M11.993,6.766c0,0.55-0.45,1-1,1h-0.801c-0.55,0-1-0.45-1-1V5.964c0-0.55,0.45-1,1-1h0.801
		c0.55,0,1,0.45,1,1V6.766z"/>
</g>
<line fill="none" stroke="#000000" stroke-width="1.5" stroke-linecap="round" stroke-linejoin="round" stroke-miterlimit="10" x1="29.834" y1="20.229" x2="25.309" y2="20.229"/>
<line fill="none" stroke="#000000" stroke-width="1.5" stroke-linecap="round" stroke-linejoin="round" stroke-miterlimit="10" x1="30.851" y1="20.229" x2="26.325" y2="20.229"/>
<line fill="none" stroke="#000000" stroke-width="1.5" stroke-linecap="round" stroke-linejoin="round" stroke-miterlimit="10" x1="8.88" y1="20.229" x2="4.354" y2="20.229"/>
<line fill="none" stroke="#000000" stroke-width="1.5" stroke-linecap="round" stroke-linejoin="round" stroke-miterlimit="10" x1="17.603" y1="31.375" x2="17.603" y2="28.953"/>
</svg>
