<?xml version="1.0" encoding="utf-8"?>
<!-- Generator: Adobe Illustrator 15.0.0, SVG Export Plug-In . SVG Version: 6.00 Build 0)  -->
<!DOCTYPE svg PUBLIC "-//W3C//DTD SVG 1.1//EN" "http://www.w3.org/Graphics/SVG/1.1/DTD/svg11.dtd">
<svg version="1.1" id="Layer_1" xmlns="http://www.w3.org/2000/svg" xmlns:xlink="http://www.w3.org/1999/xlink" x="0px" y="0px"
	 width="37px" height="37px" viewBox="0 0 37 37" enable-background="new 0 0 37 37" xml:space="preserve">
<g>
	<circle cx="18.456" cy="19.231" r="7.348"/>
	<path fill="none" stroke="#000000" stroke-width="2" stroke-miterlimit="10" d="M1.397,31.203h34.205v-2.415c0,0,0-18.215,0-22.769
		c0-4.553-4.347-4.346-4.347-4.346H11.281h14.438H5.744c0,0-4.347-0.207-4.347,4.346c0,4.554,0,22.769,0,22.769V8.986
		c0,0,0,18.215,0,22.77c0,3.83,4.347,3.519,4.347,3.519h19.975H11.281h19.975c0,0,4.347,0.209,4.347-3.519c0-4.555,0-22.77,0-22.77"
		/>
	
		<line fill="none" stroke="#000000" stroke-width="1.5" stroke-linecap="round" stroke-linejoin="round" stroke-miterlimit="10" x1="5.227" y1="5.493" x2="5.227" y2="12.194"/>
	
		<line fill="none" stroke="#000000" stroke-width="1.5" stroke-linecap="round" stroke-linejoin="round" stroke-miterlimit="10" x1="7.967" y1="5.493" x2="7.967" y2="12.194"/>
	
		<line fill="none" stroke="#000000" stroke-width="1.5" stroke-linecap="round" stroke-linejoin="round" stroke-miterlimit="10" x1="10.696" y1="5.493" x2="10.696" y2="12.194"/>
	<g>
		<rect x="26.304" y="6.112" width="5.331" height="5.33"/>
		<path d="M31.135,6.612v4.33h-4.331v-4.33H31.135 M32.135,5.612h-6.331v6.33h6.331V5.612L32.135,5.612z"/>
	</g>
	<rect x="1.63" y="31.203" width="33.653" height="2.503"/>
	<rect x="2.877" y="32.45" width="31.535" height="2.502"/>
</g>
</svg>
