<?xml version="1.0" encoding="utf-8"?>
<!-- Generator: Adobe Illustrator 15.0.0, SVG Export Plug-In . SVG Version: 6.00 Build 0)  -->
<!DOCTYPE svg PUBLIC "-//W3C//DTD SVG 1.1//EN" "http://www.w3.org/Graphics/SVG/1.1/DTD/svg11.dtd">
<svg version="1.1" id="Layer_1" xmlns="http://www.w3.org/2000/svg" xmlns:xlink="http://www.w3.org/1999/xlink" x="0px" y="0px"
	 width="40px" height="40px" viewBox="-1.5 -1.5 40 40" enable-background="new -1.5 -1.5 40 40" xml:space="preserve">
<g>
	<g>
		<path d="M28.831,4.994c0.389-0.389,1.025-0.389,1.414,0l1.992,1.993c0.389,0.389,0.389,1.025,0,1.414l-1.992,1.992
			c-0.389,0.389-1.025,0.389-1.414,0l-1.993-1.992c-0.389-0.389-0.389-1.025,0-1.414L28.831,4.994z"/>
	</g>
	<path stroke="#000000" stroke-width="0.75" stroke-miterlimit="10" d="M18.5,10.953c4.158,0,7.547,3.385,7.547,7.547
		c0,4.161-3.389,7.547-7.547,7.547c-4.162,0-7.547-3.383-7.547-7.547S14.338,10.953,18.5,10.953 M18.5,8.131
		c-5.728,0-10.369,4.642-10.369,10.369c0,5.727,4.642,10.369,10.369,10.369c5.729,0,10.369-4.643,10.369-10.369
		C28.869,12.772,24.229,8.131,18.5,8.131L18.5,8.131z"/>
	<path fill="none" stroke="#000000" stroke-width="3" stroke-miterlimit="10" d="M36.375,7.667c0,0.027,0,21.722,0,21.751
		c-0.045,3.822-3.135,6.912-6.957,6.957c-0.029,0-21.724,0-21.751,0c-3.85,0-6.978-3.088-7.042-6.924c0-0.037,0-21.745,0-21.784
		c0-3.889,3.153-7.042,7.042-7.042c0.039,0,21.747,0,21.784,0C33.287,0.689,36.375,3.817,36.375,7.667z"/>
	<g>
		<path fill="#FFFFFF" d="M29.912,7.153c-0.187,0.188-0.493,0.188-0.68,0L28.96,6.881c-0.188-0.187-0.188-0.493,0-0.681l0.272-0.273
			c0.188-0.187,0.493-0.187,0.681,0L30.186,6.2c0.187,0.187,0.187,0.493,0,0.681L29.912,7.153z"/>
	</g>
	<path fill="none" stroke="#000000" stroke-width="1.5" stroke-linecap="round" stroke-miterlimit="10" d="M13.751,20.997
		c0,0,4.749,5.104,9.498-0.065"/>
</g>
</svg>
