<?xml version="1.0" encoding="utf-8"?>
<!-- Generator: Adobe Illustrator 15.0.0, SVG Export Plug-In . SVG Version: 6.00 Build 0)  -->
<!DOCTYPE svg PUBLIC "-//W3C//DTD SVG 1.1//EN" "http://www.w3.org/Graphics/SVG/1.1/DTD/svg11.dtd">
<svg version="1.1" id="Layer_1" xmlns="http://www.w3.org/2000/svg" xmlns:xlink="http://www.w3.org/1999/xlink" x="0px" y="0px"
	 width="30px" height="30px" viewBox="0 0 30 30" enable-background="new 0 0 30 30" xml:space="preserve">
<g>
	<path fill="#231F20" d="M15,1.292c7.559,0,13.708,6.149,13.708,13.708c0,7.56-6.149,13.709-13.708,13.709S1.292,22.56,1.292,15
		C1.292,7.441,7.441,1.292,15,1.292 M15,0.292C6.876,0.292,0.292,6.877,0.292,15S6.876,29.709,15,29.709
		c8.123,0,14.708-6.586,14.708-14.709S23.123,0.292,15,0.292L15,0.292z"/>
</g>
<polygon fill="none" stroke="#231F20" stroke-miterlimit="10" points="21.363,8.636 13.352,13.353 8.636,21.364 16.592,16.593 "/>
</svg>
