<?xml version="1.0" encoding="utf-8"?>
<!-- Generator: Adobe Illustrator 15.0.0, SVG Export Plug-In . SVG Version: 6.00 Build 0)  -->
<!DOCTYPE svg PUBLIC "-//W3C//DTD SVG 1.1//EN" "http://www.w3.org/Graphics/SVG/1.1/DTD/svg11.dtd">
<svg version="1.1" id="Layer_1" xmlns="http://www.w3.org/2000/svg" xmlns:xlink="http://www.w3.org/1999/xlink" x="0px" y="0px"
	 width="30px" height="30px" viewBox="0 0 30 30" enable-background="new 0 0 30 30" xml:space="preserve">
<g>
	<path d="M14.979,1.605c7.352,0,13.333,5.981,13.333,13.333c0,7.352-5.981,13.333-13.333,13.333
		c-7.353,0-13.334-5.981-13.334-13.333C1.646,7.586,7.627,1.605,14.979,1.605 M14.979,0.105c-8.192,0-14.834,6.642-14.834,14.833
		c0,8.192,6.642,14.833,14.834,14.833c8.191,0,14.833-6.641,14.833-14.833C29.812,6.747,23.171,0.105,14.979,0.105L14.979,0.105z"/>
</g>
<g>
	<path d="M18.326,11.608l-2.368,4.385L11.6,18.315l2.337-4.337L18.326,11.608 M22.031,7.903l-9.201,4.969l-4.905,9.102l9.138-4.869
		L22.031,7.903L22.031,7.903z"/>
</g>
</svg>
